<?xml version="1.0" encoding="UTF-8" standalone="no"?>
<svg
   version="1.1"
   id="svg4312"
   viewBox="0 0 415.92872 97.540547"
   height="27.528111mm"
   width="117.38432mm"
   sodipodi:docname="logo.svg"
   inkscape:version="1.1.2 (0a00cf5339, 2022-02-04)"
   xmlns:inkscape="http://www.inkscape.org/namespaces/inkscape"
   xmlns:sodipodi="http://sodipodi.sourceforge.net/DTD/sodipodi-0.dtd"
   xmlns="http://www.w3.org/2000/svg"
   xmlns:svg="http://www.w3.org/2000/svg"
   xmlns:rdf="http://www.w3.org/1999/02/22-rdf-syntax-ns#"
   xmlns:cc="http://creativecommons.org/ns#"
   xmlns:dc="http://purl.org/dc/elements/1.1/">
  <sodipodi:namedview
     id="namedview38"
     pagecolor="#ffffff"
     bordercolor="#666666"
     borderopacity="1.0"
     inkscape:pageshadow="2"
     inkscape:pageopacity="0.0"
     inkscape:pagecheckerboard="0"
     inkscape:document-units="mm"
     showgrid="false"
     inkscape:zoom="1.8579627"
     inkscape:cx="251.8888"
     inkscape:cy="62.972201"
     inkscape:window-width="1916"
     inkscape:window-height="1033"
     inkscape:window-x="1920"
     inkscape:window-y="45"
     inkscape:window-maximized="1"
     inkscape:current-layer="svg4312"
     fit-margin-left="10"
     fit-margin-top="1"
     fit-margin-right="10"
     fit-margin-bottom="1" />
  <defs
     id="defs4314" />
  <metadata
     id="metadata4317">
    <rdf:RDF>
      <cc:Work
         rdf:about="">
        <dc:format>image/svg+xml</dc:format>
        <dc:type
           rdf:resource="http://purl.org/dc/dcmitype/StillImage" />
      </cc:Work>
    </rdf:RDF>
  </metadata>
  <path
     id="circle4975"
     d="m 147.42143,8.729565 c 8.06327,1.94749 14.5738,6.9789 18.58164,13.53925 4.00785,6.56036 5.51301,14.64964 3.56551,22.71291"
     style="fill:none;fill-opacity:0.773481;stroke:#0071bc;stroke-width:7;stroke-linecap:round;stroke-linejoin:round;stroke-miterlimit:4;stroke-dasharray:none;stroke-opacity:1" />
  <path
     id="circle4975-5"
     d="m 147.17888,20.789395 c 4.43128,1.07028 8.00924,3.83536 10.2118,7.4407 2.20257,3.60534 3.02976,8.05092 1.95948,12.4822"
     style="fill:none;fill-opacity:0.773481;stroke:#0071bc;stroke-width:7;stroke-linecap:round;stroke-linejoin:round;stroke-miterlimit:4;stroke-dasharray:none;stroke-opacity:1" />
  <path
     id="path4884"
     d="M 93.99557,3.543307 A 27.924021,26.011421 0 0 0 66.644008,24.334323 17.319939,16.133644 0 0 0 51.999477,16.805026 17.319939,16.133644 0 0 0 34.960414,30.127291 20.70274,19.284746 0 0 0 18.269008,45.547213 20.70274,19.284746 0 0 0 3.558071,63.988619 20.70274,19.284746 0 0 0 18.374477,82.463225 h 11.771484 107.730469 6.03711 a 17.319939,16.133644 0 0 0 14.30469,-15.87109 17.319939,16.133644 0 0 0 -7.85157,-13.494141 20.70274,19.284746 0 0 0 2.43946,-9.064453 A 20.70274,19.284746 0 0 0 132.10495,24.748385 20.70274,19.284746 0 0 0 121.80026,27.334323 27.924021,26.011421 0 0 0 93.99557,3.543307 Z"
     style="fill:#0071bc;fill-opacity:1;stroke:none;stroke-width:3.1;stroke-linejoin:round;stroke-miterlimit:4;stroke-dasharray:none;stroke-opacity:1" />
  <g
     id="g122"
     transform="matrix(1.4125881,0,0,1.4125881,135.32358,-178.35704)"
     style="display:inline;fill:#000000;fill-opacity:1">
    <path
       id="path5019"
       style="font-style:normal;font-variant:normal;font-weight:bold;font-stretch:normal;font-size:21.8983px;line-height:125%;font-family:Waree;-inkscape-font-specification:'Waree Bold';letter-spacing:0px;word-spacing:0px;fill:#000000;fill-opacity:1;stroke:none;stroke-width:1px;stroke-linecap:butt;stroke-linejoin:miter;stroke-opacity:1"
       d="m 44.62514,133.91282 h 14.71289 v 3.11152 h -5.29279 v 12.8524 h -4.11662 v -12.8524 h -5.30348 z" />
    <path
       id="path5021"
       style="font-style:normal;font-variant:normal;font-weight:bold;font-stretch:normal;font-size:21.8983px;line-height:125%;font-family:Waree;-inkscape-font-specification:'Waree Bold';letter-spacing:0px;word-spacing:0px;fill:#000000;fill-opacity:1;stroke:none;stroke-width:1px;stroke-linecap:butt;stroke-linejoin:miter;stroke-opacity:1"
       d="m 61.45515,133.91282 h 4.11661 v 6.08404 h 6.07335 v -6.08404 h 4.11662 v 15.96392 h -4.11662 v -6.76836 h -6.07335 v 6.76836 h -4.11661 z" />
    <path
       id="path5023"
       style="font-style:normal;font-variant:normal;font-weight:bold;font-stretch:normal;font-size:21.8983px;line-height:125%;font-family:Waree;-inkscape-font-specification:'Waree Bold';letter-spacing:0px;word-spacing:0px;fill:#000000;fill-opacity:1;stroke:none;stroke-width:1px;stroke-linecap:butt;stroke-linejoin:miter;stroke-opacity:1"
       d="m 79.80349,133.91282 h 11.10952 v 3.11152 h -6.9929 v 2.97252 H 90.496 v 3.11152 h -6.57589 v 3.65684 h 7.22813 v 3.11152 H 79.80349 Z" />
    <path
       id="path5025"
       style="font-style:normal;font-variant:normal;font-weight:bold;font-stretch:normal;font-size:21.8983px;line-height:125%;font-family:Waree;-inkscape-font-specification:'Waree Bold';letter-spacing:0px;word-spacing:0px;fill:#000000;fill-opacity:1;stroke:none;stroke-width:1px;stroke-linecap:butt;stroke-linejoin:miter;stroke-opacity:1"
       d="m 100.48281,133.91282 h 14.71289 v 3.11152 h -5.29279 v 12.8524 h -4.11662 v -12.8524 h -5.30348 z" />
    <path
       id="path5027"
       style="font-style:normal;font-variant:normal;font-weight:bold;font-stretch:normal;font-size:21.8983px;line-height:125%;font-family:Waree;-inkscape-font-specification:'Waree Bold';letter-spacing:0px;word-spacing:0px;fill:#000000;fill-opacity:1;stroke:none;stroke-width:1px;stroke-linecap:butt;stroke-linejoin:miter;stroke-opacity:1"
       d="m 117.31281,133.91282 h 4.11662 v 6.08404 h 6.07335 v -6.08404 h 4.11661 v 15.96392 h -4.11661 v -6.76836 h -6.07335 v 6.76836 h -4.11662 z" />
    <path
       id="path5029"
       style="font-style:normal;font-variant:normal;font-weight:bold;font-stretch:normal;font-size:21.8983px;line-height:125%;font-family:Waree;-inkscape-font-specification:'Waree Bold';letter-spacing:0px;word-spacing:0px;fill:#000000;fill-opacity:1;stroke:none;stroke-width:1px;stroke-linecap:butt;stroke-linejoin:miter;stroke-opacity:1"
       d="m 135.66116,133.91282 h 4.11661 v 15.96392 h -4.11661 z" />
    <path
       id="path5031"
       style="font-style:normal;font-variant:normal;font-weight:bold;font-stretch:normal;font-size:21.8983px;line-height:125%;font-family:Waree;-inkscape-font-specification:'Waree Bold';letter-spacing:0px;word-spacing:0px;fill:#000000;fill-opacity:1;stroke:none;stroke-width:1px;stroke-linecap:butt;stroke-linejoin:miter;stroke-opacity:1"
       d="m 143.83023,133.91282 h 4.59778 l 5.80603,10.94913 v -10.94913 h 3.90277 v 15.96392 h -4.59778 L 147.733,138.92761 v 10.94913 h -3.90277 z" />
    <path
       id="path5033"
       style="font-style:normal;font-variant:normal;font-weight:bold;font-stretch:normal;font-size:21.8983px;line-height:125%;font-family:Waree;-inkscape-font-specification:'Waree Bold';letter-spacing:0px;word-spacing:0px;fill:#000000;fill-opacity:1;stroke:none;stroke-width:1px;stroke-linecap:butt;stroke-linejoin:miter;stroke-opacity:1"
       d="m 170.44389,147.20361 q 1.33657,0 2.18127,-0.33147 v -3.10082 h -2.51274 v -2.75867 h 6.41551 v 7.67722 q -3.09014,1.49695 -6.61866,1.49695 -4.00969,0 -6.32997,-2.21335 -2.32027,-2.22404 -2.32027,-6.06265 0,-3.89207 2.36304,-6.08404 2.37374,-2.20265 6.51174,-2.20265 3.20775,0 5.80603,1.18686 v 3.30399 q -2.64105,-1.50764 -5.30348,-1.50764 -2.46997,0 -3.79584,1.37933 -1.32587,1.36864 -1.32587,3.92415 0,2.52343 1.2724,3.91346 1.27241,1.37933 3.65684,1.37933 z" />
    <path
       id="path5035"
       style="font-style:normal;font-variant:normal;font-weight:bold;font-stretch:normal;font-size:21.8983px;line-height:125%;font-family:Waree;-inkscape-font-specification:'Waree Bold';letter-spacing:0px;word-spacing:0px;fill:#000000;fill-opacity:1;stroke:none;stroke-width:1px;stroke-linecap:butt;stroke-linejoin:miter;stroke-opacity:1"
       d="m 185.67002,133.62413 q 2.65174,0 5.58149,0.79124 v 3.37883 q -2.65174,-1.18686 -4.92925,-1.18686 -1.5611,0 -2.22404,0.43839 -0.66293,0.4277 -0.66293,1.22964 0,0.67363 0.51324,1.02648 0.51324,0.34216 1.68941,0.58809 l 1.75357,0.35285 q 2.56621,0.51324 3.73169,1.59318 1.17618,1.06925 1.17618,3.13291 0,2.73728 -1.62527,3.97761 -1.62526,1.24033 -4.72609,1.24033 -3.02598,0 -6.10542,-1.1441 v -3.47506 q 3.10083,1.63595 5.7098,1.63595 0.84471,0 1.42211,-0.16039 0.58808,-0.17108 0.86609,-0.44908 0.278,-0.2887 0.38493,-0.55601 0.10692,-0.26731 0.10692,-0.5667 0,-0.80194 -0.55601,-1.19757 -0.54531,-0.39562 -1.87119,-0.68432 l -1.59318,-0.35285 q -2.2775,-0.50255 -3.44299,-1.58249 -1.16548,-1.07994 -1.16548,-3.07944 0,-2.46997 1.58249,-3.7103 1.58249,-1.24033 4.38393,-1.24033 z" />
    <path
       id="path5037"
       style="font-style:normal;font-variant:normal;font-weight:bold;font-stretch:normal;font-size:12.3178px;line-height:125%;font-family:Waree;-inkscape-font-specification:'Waree Bold';letter-spacing:12.5641px;word-spacing:0px;fill:#000000;fill-opacity:1;stroke:none;stroke-width:1px;stroke-linecap:butt;stroke-linejoin:miter;stroke-opacity:1"
       d="m 45.64895,159.76232 h 2.58625 l 3.26589,6.15889 v -6.15889 h 2.19531 v 8.97971 h -2.58625 l -3.2659,-6.15889 v 6.15889 h -2.1953 z" />
    <path
       id="path5039"
       style="font-style:normal;font-variant:normal;font-weight:bold;font-stretch:normal;font-size:12.3178px;line-height:125%;font-family:Waree;-inkscape-font-specification:'Waree Bold';letter-spacing:12.5641px;word-spacing:0px;fill:#000000;fill-opacity:1;stroke:none;stroke-width:1px;stroke-linecap:butt;stroke-linejoin:miter;stroke-opacity:1"
       d="m 68.53402,159.76232 h 6.2491 v 1.75023 h -3.93351 v 1.67205 h 3.69894 v 1.75023 h -3.69894 v 2.05697 h 4.06583 v 1.75023 h -6.38142 z" />
    <path
       id="path5041"
       style="font-style:normal;font-variant:normal;font-weight:bold;font-stretch:normal;font-size:12.3178px;line-height:125%;font-family:Waree;-inkscape-font-specification:'Waree Bold';letter-spacing:12.5641px;word-spacing:0px;fill:#000000;fill-opacity:1;stroke:none;stroke-width:1px;stroke-linecap:butt;stroke-linejoin:miter;stroke-opacity:1"
       d="m 88.4479,159.76232 h 8.27601 v 1.75023 h -2.9772 v 7.22948 h -2.3156 v -7.22948 H 88.4479 Z" />
    <path
       id="path5043"
       style="font-style:normal;font-variant:normal;font-weight:bold;font-stretch:normal;font-size:12.3178px;line-height:125%;font-family:Waree;-inkscape-font-specification:'Waree Bold';letter-spacing:12.5641px;word-spacing:0px;fill:#000000;fill-opacity:1;stroke:none;stroke-width:1px;stroke-linecap:butt;stroke-linejoin:miter;stroke-opacity:1"
       d="m 109.71506,159.76232 h 2.21937 l 1.55175,6.52578 1.53972,-6.52578 h 2.23139 l 1.53972,6.52578 1.55175,-6.52578 h 2.20132 l -2.11711,8.97971 h -2.67046 l -1.62994,-6.8265 -1.61189,6.8265 h -2.67045 z" />
    <path
       id="path5045"
       style="font-style:normal;font-variant:normal;font-weight:bold;font-stretch:normal;font-size:12.3178px;line-height:125%;font-family:Waree;-inkscape-font-specification:'Waree Bold';letter-spacing:12.5641px;word-spacing:0px;fill:#000000;fill-opacity:1;stroke:none;stroke-width:1px;stroke-linecap:butt;stroke-linejoin:miter;stroke-opacity:1"
       d="m 142.83688,165.45208 q 0.13232,-0.5353 0.13232,-1.19088 0,-0.65559 -0.13232,-1.19088 -0.13232,-0.53529 -0.39696,-0.93827 -0.26464,-0.40899 -0.69769,-0.63152 -0.43304,-0.22254 -1.00442,-0.22254 -0.75182,0 -1.26306,0.39696 -0.50522,0.39094 -0.73377,1.04653 -0.22855,0.65558 -0.22855,1.53972 0,1.35327 0.55334,2.16523 0.55935,0.81196 1.67204,0.81196 0.57138,0 1.00442,-0.22254 0.43305,-0.22253 0.69769,-0.62551 0.26464,-0.40899 0.39696,-0.93826 z m -5.49127,2.2374 q -1.22697,-1.22696 -1.22697,-3.42828 0,-2.20132 1.22697,-3.42829 1.23298,-1.23298 3.3922,-1.23298 2.16523,0 3.3922,1.22697 1.22696,1.22696 1.22696,3.4343 0,2.20132 -1.23298,3.42828 -1.22696,1.22697 -3.38618,1.22697 -2.15922,0 -3.3922,-1.22697 z" />
    <path
       id="path5047"
       style="font-style:normal;font-variant:normal;font-weight:bold;font-stretch:normal;font-size:12.3178px;line-height:125%;font-family:Waree;-inkscape-font-specification:'Waree Bold';letter-spacing:12.5641px;word-spacing:0px;fill:#000000;fill-opacity:1;stroke:none;stroke-width:1px;stroke-linecap:butt;stroke-linejoin:miter;stroke-opacity:1"
       d="m 164.31455,162.58314 q 0,-0.63152 -0.3308,-0.88414 -0.3308,-0.25862 -1.02849,-0.25862 h -0.97435 v 2.30357 h 0.97435 q 0.75182,0 1.05255,-0.28269 0.30674,-0.28268 0.30674,-0.87812 z m 2.3156,-0.34283 q 0,1.76226 -1.72618,2.30357 0.52327,0.12029 0.89015,0.53529 0.37291,0.41501 0.72175,1.11269 l 1.25704,2.55017 h -2.46596 l -1.09465,-2.2314 q -0.30674,-0.63152 -0.64957,-0.89616 -0.33681,-0.27066 -0.92624,-0.27066 h -0.65558 v 3.39822 h -2.3156 v -8.97971 h 3.53655 q 0.96834,0 1.64798,0.17443 0.67964,0.17442 1.06458,0.51123 0.38493,0.33682 0.54732,0.77588 0.16841,0.43304 0.16841,1.01645 z" />
    <path
       id="path5049"
       style="font-style:normal;font-variant:normal;font-weight:bold;font-stretch:normal;font-size:12.3178px;line-height:125%;font-family:Waree;-inkscape-font-specification:'Waree Bold';letter-spacing:12.5641px;word-spacing:0px;fill:#000000;fill-opacity:1;stroke:none;stroke-width:1px;stroke-linecap:butt;stroke-linejoin:miter;stroke-opacity:1"
       d="m 181.70835,159.76232 h 2.3156 v 3.27793 l 3.33806,-3.27793 h 2.6885 l -4.32445,4.25228 4.76953,4.72743 h -2.89901 l -3.57263,-3.53655 v 3.53655 h -2.3156 z" />
    <path
       id="path5051"
       style="font-style:normal;font-variant:normal;font-weight:bold;font-stretch:normal;font-size:12.3178px;line-height:125%;font-family:Waree;-inkscape-font-specification:'Waree Bold';letter-spacing:8.12425px;word-spacing:0px;fill:#000000;fill-opacity:1;stroke:none;stroke-width:1px;stroke-linecap:butt;stroke-linejoin:miter;stroke-opacity:1"
       d="m 50.18391,182.63561 q 1.34725,0 2.58625,-0.84805 v 1.85849 q -1.2811,0.66761 -2.7727,0.66761 -2.25545,0 -3.56061,-1.245 -1.30515,-1.25103 -1.30515,-3.41025 0,-2.15921 1.29914,-3.41024 1.30515,-1.25102 3.56662,-1.25102 1.4916,0 2.7727,0.66761 v 1.85849 q -1.25103,-0.84805 -2.58625,-0.84805 -1.26306,0 -1.96074,0.80595 -0.69769,0.79994 -0.69769,2.17726 0,1.37733 0.69769,2.17727 0.69768,0.79993 1.96074,0.79993 z" />
    <path
       id="path5053"
       style="font-style:normal;font-variant:normal;font-weight:bold;font-stretch:normal;font-size:12.3178px;line-height:125%;font-family:Waree;-inkscape-font-specification:'Waree Bold';letter-spacing:8.12425px;word-spacing:0px;fill:#000000;fill-opacity:1;stroke:none;stroke-width:1px;stroke-linecap:butt;stroke-linejoin:miter;stroke-opacity:1"
       d="m 68.26823,182.50329 h -3.62075 l -0.57138,1.63595 h -2.32762 l 3.32603,-8.9797 h 2.76068 l 3.32604,8.9797 H 68.8336 Z m -3.04335,-1.66603 h 2.45994 l -1.22696,-3.57263 z" />
    <path
       id="path5055"
       style="font-style:normal;font-variant:normal;font-weight:bold;font-stretch:normal;font-size:12.3178px;line-height:125%;font-family:Waree;-inkscape-font-specification:'Waree Bold';letter-spacing:8.12425px;word-spacing:0px;fill:#000000;fill-opacity:1;stroke:none;stroke-width:1px;stroke-linecap:butt;stroke-linejoin:miter;stroke-opacity:1"
       d="m 78.48555,175.15954 h 8.276 v 1.75023 h -2.9772 v 7.22947 h -2.31559 v -7.22947 h -2.98321 z" />
    <path
       id="path5057"
       style="font-style:normal;font-variant:normal;font-weight:bold;font-stretch:normal;font-size:12.3178px;line-height:125%;font-family:Waree;-inkscape-font-specification:'Waree Bold';letter-spacing:8.12425px;word-spacing:0px;fill:#000000;fill-opacity:1;stroke:none;stroke-width:1px;stroke-linecap:butt;stroke-linejoin:miter;stroke-opacity:1"
       d="m 100.61164,182.50329 h -3.62075 l -0.57138,1.63595 h -2.32763 l 3.32604,-8.9797 h 2.76067 l 3.32604,8.9797 h -2.32762 z m -3.04336,-1.66603 h 2.45995 l -1.22697,-3.57263 z" />
    <path
       id="path5059"
       style="font-style:normal;font-variant:normal;font-weight:bold;font-stretch:normal;font-size:12.3178px;line-height:125%;font-family:Waree;-inkscape-font-specification:'Waree Bold';letter-spacing:8.12425px;word-spacing:0px;fill:#000000;fill-opacity:1;stroke:none;stroke-width:1px;stroke-linecap:butt;stroke-linejoin:miter;stroke-opacity:1"
       d="m 112.81375,175.15954 h 2.3156 v 7.22947 h 4.06582 v 1.75023 h -6.38142 z" />
    <path
       id="path5061"
       style="font-style:normal;font-variant:normal;font-weight:bold;font-stretch:normal;font-size:12.3178px;line-height:125%;font-family:Waree;-inkscape-font-specification:'Waree Bold';letter-spacing:8.12425px;word-spacing:0px;fill:#000000;fill-opacity:1;stroke:none;stroke-width:1px;stroke-linecap:butt;stroke-linejoin:miter;stroke-opacity:1"
       d="m 132.64831,184.31366 q -1.9427,0 -2.90503,-0.92623 -0.96232,-0.93226 -0.96232,-2.84488 v -5.38301 h 2.31559 v 5.38301 q 0,1.05856 0.34885,1.56378 0.34884,0.50522 1.20291,0.50522 0.87812,0 1.21493,-0.51725 0.34283,-0.51725 0.34283,-1.55175 v -5.38301 h 2.3156 v 5.38301 q 0,1.91864 -0.96233,2.84488 -0.96232,0.92623 -2.91103,0.92623 z" />
    <path
       id="path5063"
       style="font-style:normal;font-variant:normal;font-weight:bold;font-stretch:normal;font-size:12.3178px;line-height:125%;font-family:Waree;-inkscape-font-specification:'Waree Bold';letter-spacing:8.12425px;word-spacing:0px;fill:#000000;fill-opacity:1;stroke:none;stroke-width:1px;stroke-linecap:butt;stroke-linejoin:miter;stroke-opacity:1"
       d="m 146.9134,175.15954 h 2.58626 l 3.26589,6.15889 v -6.15889 h 2.1953 v 8.9797 h -2.58625 l -3.26589,-6.15888 v 6.15888 h -2.19531 z" />
    <path
       id="path5065"
       style="font-style:normal;font-variant:normal;font-weight:bold;font-stretch:normal;font-size:12.3178px;line-height:125%;font-family:Waree;-inkscape-font-specification:'Waree Bold';letter-spacing:8.12425px;word-spacing:0px;fill:#000000;fill-opacity:1;stroke:none;stroke-width:1px;stroke-linecap:butt;stroke-linejoin:miter;stroke-opacity:1"
       d="m 164.10758,175.15954 h 2.53212 l 2.04494,3.19973 2.04494,-3.19973 h 2.53814 l -3.42227,5.19656 v 3.78314 h -2.3156 v -3.78314 z" />
    <path
       id="path5067"
       style="font-style:normal;font-variant:normal;font-weight:bold;font-stretch:normal;font-size:12.3178px;line-height:125%;font-family:Waree;-inkscape-font-specification:'Waree Bold';letter-spacing:8.12425px;word-spacing:0px;fill:#000000;fill-opacity:1;stroke:none;stroke-width:1px;stroke-linecap:butt;stroke-linejoin:miter;stroke-opacity:1"
       d="m 186.94339,182.50329 h -3.62075 l -0.57138,1.63595 h -2.32762 l 3.32603,-8.9797 h 2.76068 l 3.32603,8.9797 h -2.32762 z m -3.04335,-1.66603 h 2.45994 l -1.22696,-3.57263 z" />
  </g>
</svg>
